{"title":"Happy Twon 1x03 HDTV + AC3","uid":5594593,"size":465645745,"categoryP":"video","categoryS":"hd___tv_shows","magnet":"?xt=urn:btih:d7efe56058ffd22202abc0afabc64a0c122018b6&amp;dn=Happy+Twon+1x03+HDTV+%2B+AC3&amp;tr=udp%3A%2F%2Ftracker.openbittorrent.com%3A80&amp;tr=udp%3A%2F%2Fopen.demonii.com%3A1337&amp;tr=udp%3A%2F%2Ftracker.coppersurfer.tk%3A6969&amp;tr=udp%3A%2F%2Fexodus.desync.com%3A6969","seeders":0,"leechers":0,"uploader":"fleqii","files":1,"time":1274990393,"description":"E:UsersJOELDownloadsHappy Twon 1x03 HDTV + AC3.mkv\n   General\n      Complete name : E:UsersJOELDownloadsHappy Twon 1x03 HDTV + AC3.mkv\n      Format : Matroska\n      File size : 444 MiB\n      Duration : 40mn 37s\n      Overall bit rate : 1 528 Kbps\n      Encoded date : UTC 2010-05-27 17:35:15\n      Writing application : VirtualDubMod 1.5.10.2 (build 2540/release)\n      Writing library : libebml-0.7.5 &amp; libmatroska-0.7.7\n   Video #1\n      ID : 1\n      Format : MPEG-4 Visual\n      Format profile : Simple@L3\n      Format settings, BVOP : No\n      Format settings, QPel : No\n      Format settings, GMC : No warppoints\n      Format settings, Matrix : Default (H.263)\n      Codec ID : XVID\n      Codec ID/Hint : XviD\n      Duration : 40mn 37s\n      Bit rate : 1 050 Kbps\n      Width : 624 pixels\n      Height : 352 pixels\n      Display aspect ratio : 16:9\n      Original display aspect ratio : 16:9\n      Frame rate : 25.000 fps\n      Resolution : 24 bits\n      Colorimetry : 4:2:0\n      Scan type : Progressive\n      Bits/(Pixel*Frame) : 0.191\n      Stream size : 305 MiB (69%)\n      Writing library : XviD 1.2.0.dev49\n   Audio #2\n      ID : 2\n      Format : AC-3\n      Format/Info : Audio Coding 3\n      Codec ID : A_AC3\n      Duration : 40mn 37s\n      Bit rate mode : Constant\n      Bit rate : 448 Kbps\n      Channel(s) : 2 channels\n      Channel positions : L R\n      Sampling rate : 48.0 KHz\n      Stream size : 130 MiB (29%)","torrent":{"xt":"urn:btih:d7efe56058ffd22202abc0afabc64a0c122018b6","amp;dn":"Happy+Twon+1x03+HDTV+%2B+AC3","amp;tr":["udp%3A%2F%2Ftracker.openbittorrent.com%3A80","udp%3A%2F%2Fopen.demonii.com%3A1337","udp%3A%2F%2Ftracker.coppersurfer.tk%3A6969","udp%3A%2F%2Fexodus.desync.com%3A6969"],"infoHash":"d7efe56058ffd22202abc0afabc64a0c122018b6","infoHashBuffer":{"type":"Buffer","data":[215,239,229,96,88,255,210,34,2,171,192,175,171,198,74,12,18,32,24,182]},"announce":[],"urlList":[]}}